PathFileType	4	(X/Y/Z)	C:/Users/Rosti/Documents/GitHub/TechForParalysis/Code/Model/04122019 - Marker Volunteer01/Rosti Data/New Session 103.trc	
DataRate	CameraRate	NumFrames	NumMarkers	Units	OrigDataRate	OrigDataStartFrame	OrigNumFrames	
100.00	100.00	20	14	mm	100.00	543	620	
Frame#	Time	C7			PX			T8			IJ			SC			AC			AI			TS			AA			GH			LE			ME			US			RS			
		X1	Y1	Z1	X2	Y2	Z2	X3	Y3	Z3	X4	Y4	Z4	X5	Y5	Z5	X6	Y6	Z6	X7	Y7	Z7	X8	Y8	Z8	X9	Y9	Z9	X10	Y10	Z10	X11	Y11	Z11	X12	Y12	Z12	X13	Y13	Z13	X14	Y14	Z14	

543	5.42	18.6769	1534.26	698.463	-18.2533	1293.96	462.788	14.2054	1319.25	764.491	-13.0518	1435.32	532.911	12.2686	1442.9	536.811	162.55	1474.01	596.209	100.52	1454.41	730.424	97.1879	1335.81	761.904	214.911	1428.42	663.124	224.911	1440.86	621.978	254.541	1151.61	540.756	166.751	1133.54	513.052	277.669	894.458	426.611	342.21	931.535	406.881
544	5.43	18.628	1534.27	698.583	-18.2508	1293.99	462.849	14.1346	1319.23	764.59	-13.0595	1435.37	532.996	12.2404	1442.92	536.905	162.522	1474.04	596.322	100.478	1454.4	730.53	97.1479	1335.8	762.003	214.862	1428.43	663.243	224.882	1440.89	622.109	254.51	1151.62	540.932	166.829	1133.55	513.188	277.695	894.474	426.722	342.242	931.548	407.056
545	5.44	18.5678	1534.28	698.696	-18.2469	1294.02	462.911	14.0575	1319.21	764.692	-13.0684	1435.42	533.078	12.1896	1442.92	537.014	162.499	1474.06	596.434	100.433	1454.39	730.63	97.0932	1335.8	762.14	214.808	1428.44	663.363	224.847	1440.91	622.25	254.463	1151.62	541.103	166.878	1133.56	513.31	277.697	894.481	426.832	342.262	931.554	407.231
546	5.45	18.5009	1534.29	698.801	-18.2479	1294.04	462.977	13.9759	1319.19	764.796	-13.0795	1435.47	533.159	12.1243	1442.9	537.144	162.476	1474.08	596.544	100.383	1454.37	730.727	97.0278	1335.82	762.304	214.753	1428.45	663.488	224.807	1440.92	622.394	254.412	1151.63	541.262	166.906	1133.58	513.403	277.705	894.499	426.961	342.274	931.557	407.406
547	5.46	18.4358	1534.3	698.901	-18.2573	1294.05	463.048	13.8924	1319.17	764.902	-13.0937	1435.53	533.241	12.0584	1442.88	537.287	162.448	1474.1	596.655	100.327	1454.35	730.827	96.9575	1335.83	762.475	214.695	1428.46	663.617	224.76	1440.93	622.534	254.367	1151.64	541.403	166.925	1133.6	513.467	277.738	894.535	427.119	342.281	931.562	407.578
548	5.47	18.38	1534.3	699.005	-18.2731	1294.07	463.12	13.8097	1319.16	765.008	-13.1113	1435.59	533.323	12.0094	1442.86	537.421	162.408	1474.12	596.771	100.265	1454.33	730.933	96.8889	1335.84	762.627	214.634	1428.46	663.743	224.711	1440.94	622.668	254.331	1151.66	541.525	166.943	1133.62	513.513	277.761	894.578	427.278	342.284	931.571	407.745
549	5.48	18.3333	1534.31	699.118	-18.291	1294.1	463.189	13.7305	1319.14	765.113	-13.1324	1435.65	533.406	11.9825	1442.86	537.534	162.358	1474.15	596.892	100.199	1454.32	731.044	96.8281	1335.84	762.741	214.574	1428.47	663.867	224.665	1440.95	622.799	254.299	1151.68	541.63	166.962	1133.65	513.561	277.755	894.619	427.419	342.282	931.585	407.907
550	5.49	18.2881	1534.33	699.236	-18.3078	1294.12	463.254	13.6566	1319.12	765.217	-13.1569	1435.71	533.489	11.9675	1442.87	537.623	162.303	1474.18	597.019	100.133	1454.3	731.153	96.7788	1335.82	762.81	214.517	1428.47	663.991	224.625	1440.97	622.933	254.263	1151.7	541.728	166.976	1133.67	513.631	277.728	894.655	427.55	342.276	931.604	408.066
551	5.5	18.2333	1534.34	699.351	-18.3238	1294.15	463.314	13.5886	1319.11	765.317	-13.1848	1435.77	533.571	11.9515	1442.88	537.702	162.252	1474.2	597.146	100.07	1454.29	731.257	96.7407	1335.79	762.841	214.465	1428.48	664.117	224.591	1441	623.073	254.222	1151.73	541.824	166.975	1133.69	513.735	277.696	894.69	427.679	342.265	931.625	408.222
552	5.51	18.1581	1534.34	699.453	-18.3404	1294.17	463.375	13.5268	1319.09	765.414	-13.2153	1435.82	533.653	11.9297	1442.89	537.78	162.208	1474.22	597.272	100.013	1454.27	731.359	96.7092	1335.75	762.851	214.417	1428.5	664.239	224.558	1441.04	623.217	254.181	1151.77	541.92	166.95	1133.72	513.868	277.669	894.722	427.806	342.25	931.646	408.373
553	5.52	18.0564	1534.34	699.538	-18.3568	1294.19	463.438	13.4707	1319.07	765.507	-13.2478	1435.87	533.733	11.9059	1442.91	537.862	162.167	1474.23	597.4	99.9627	1454.25	731.461	96.6774	1335.71	762.863	214.371	1428.51	664.353	224.528	1441.07	623.353	254.148	1151.81	542.015	166.903	1133.75	514.009	277.654	894.759	427.923	342.235	931.667	408.515
554	5.53	17.9294	1534.34	699.608	-18.3711	1294.22	463.506	13.4193	1319.06	765.596	-13.281	1435.91	533.812	11.8879	1442.94	537.945	162.123	1474.24	597.532	99.9136	1454.23	731.567	96.6401	1335.68	762.896	214.328	1428.52	664.462	224.495	1441.1	623.47	254.123	1151.84	542.11	166.849	1133.78	514.141	277.65	894.805	428.022	342.223	931.688	408.642
555	5.54	17.7861	1534.34	699.672	-18.3848	1294.24	463.575	13.3716	1319.05	765.68	-13.314	1435.94	533.888	11.8766	1442.99	538.023	162.073	1474.25	597.668	99.8614	1454.22	731.679	96.5951	1335.66	762.957	214.282	1428.53	664.574	224.46	1441.12	623.571	254.102	1151.87	542.202	166.811	1133.82	514.253	277.65	894.856	428.1	342.219	931.713	408.749
556	5.55	17.6396	1534.33	699.739	-18.4017	1294.27	463.64	13.3261	1319.04	765.762	-13.3459	1435.97	533.962	11.8637	1443.05	538.097	162.02	1474.25	597.805	99.8016	1454.22	731.797	96.5418	1335.66	763.049	214.229	1428.53	664.692	224.425	1441.14	623.671	254.083	1151.9	542.285	166.799	1133.86	514.334	277.645	894.907	428.158	342.226	931.748	408.833
557	5.56	17.5003	1534.31	699.813	-18.4234	1294.3	463.699	13.2813	1319.04	765.84	-13.3763	1435.98	534.033	11.8363	1443.11	538.173	161.972	1474.27	597.938	99.732	1454.21	731.917	96.4794	1335.67	763.169	214.169	1428.53	664.816	224.389	1441.16	623.784	254.062	1151.92	542.351	166.804	1133.9	514.376	277.624	894.96	428.19	342.243	931.799	408.896
558	5.57	17.3762	1534.3	699.896	-18.4474	1294.33	463.75	13.2363	1319.03	765.918	-13.4055	1435.99	534.101	11.7907	1443.16	538.256	161.938	1474.32	598.07	99.6539	1454.21	732.035	96.4071	1335.69	763.313	214.106	1428.54	664.944	224.349	1441.18	623.916	254.038	1151.96	542.403	166.806	1133.96	514.378	277.582	895.017	428.185	342.271	931.868	408.942
559	5.58	17.2712	1534.27	699.985	-18.4702	1294.35	463.795	13.1901	1319.04	765.994	-13.434	1435.99	534.165	11.736	1443.19	538.341	161.915	1474.41	598.199	99.5692	1454.21	732.15	96.3244	1335.72	763.473	214.039	1428.56	665.073	224.302	1441.21	624.063	254.02	1152	542.45	166.79	1134.03	514.353	277.535	895.082	428.148	342.308	931.951	408.975
560	5.59	17.1842	1534.25	700.074	-18.491	1294.37	463.841	13.142	1319.04	766.07	-13.4634	1435.98	534.224	11.6856	1443.2	538.421	161.896	1474.53	598.322	99.4781	1454.21	732.259	96.2324	1335.75	763.637	213.964	1428.57	665.204	224.25	1441.22	624.214	254.012	1152.05	542.505	166.755	1134.12	514.315	277.515	895.161	428.099	342.355	932.041	409
561	5.6	17.1112	1534.23	700.157	-18.513	1294.38	463.889	13.0916	1319.05	766.146	-13.4953	1435.97	534.279	11.6504	1443.2	538.49	161.869	1474.62	598.44	99.3817	1454.21	732.361	96.134	1335.77	763.791	213.88	1428.58	665.335	224.194	1441.24	624.363	254.005	1152.1	542.569	166.714	1134.2	514.288	277.535	895.253	428.042	342.41	932.139	409.018
562	5.61	17.0457	1534.21	700.228	-18.5396	1294.38	463.942	13.0384	1319.06	766.222	-13.5317	1435.95	534.33	11.6325	1443.19	538.547	161.826	1474.66	598.549	99.285	1454.21	732.454	96.0333	1335.79	763.926	213.79	1428.59	665.467	224.135	1441.25	624.506	253.99	1152.14	542.637	166.689	1134.26	514.291	277.578	895.349	427.969	342.475	932.244	409.03
